HIERARCHY
ROOT Hips
{
	OFFSET 0.000000 0.000000 0.000000 
	CHANNELS 6 Xposition Yposition Zposition Zrotation Yrotation Xrotation
	JOINT LeftUpLeg
	{
		OFFSET 1.363060 -1.794630 0.839290 
		CHANNELS 3 Zrotation Yrotation Xrotation
		JOINT LeftLeg
		{
			OFFSET 2.448110 -6.726130 0.000000 
			CHANNELS 3 Zrotation Yrotation Xrotation
			JOINT LeftFoot
			{
				OFFSET 2.562200 -7.039590 0.000000 
				CHANNELS 3 Zrotation Yrotation Xrotation
				JOINT LeftToeBase
				{
					OFFSET 0.157640 -0.433110 2.322550 
					CHANNELS 3 Zrotation Yrotation Xrotation
					End Site
					{
						OFFSET 0.000000 0.000000 0.000000 
					}
				}
			}
		}
	}
	JOINT RightUpLeg
	{
		OFFSET -1.305520 -1.794630 0.839290 
		CHANNELS 3 Zrotation Yrotation Xrotation
		JOINT RightLeg
		{
			OFFSET -2.542530 -6.985550 0.000000 
			CHANNELS 3 Zrotation Yrotation Xrotation
			JOINT RightFoot
			{
				OFFSET -2.568260 -7.056230 0.000000 
				CHANNELS 3 Zrotation Yrotation Xrotation
				JOINT RightToeBase
				{
					OFFSET -0.164730 -0.452590 2.363150 
					CHANNELS 3 Zrotation Yrotation Xrotation
					End Site
					{
						OFFSET 0.000000 0.000000 0.000000 
					}
				}
			}
		}
	}
	JOINT Spine
	{
		OFFSET 0.028270 2.035590 -0.193380 
		CHANNELS 3 Zrotation Yrotation Xrotation
		JOINT Spine1
		{
			OFFSET 0.056720 2.048850 -0.042750 
			CHANNELS 3 Zrotation Yrotation Xrotation
			JOINT Neck1
			{
				OFFSET -0.054170 1.746240 0.172020 
				CHANNELS 3 Zrotation Yrotation Xrotation
				JOINT Head
				{
					OFFSET 0.104070 1.761360 -0.123970 
					CHANNELS 3 Zrotation Yrotation Xrotation
					End Site
					{
						OFFSET 0.000000 0.000000 0.000000 
					}
				}
			}
			JOINT LeftArm
			{
				OFFSET 3.362410 1.200890 -0.311210 
				CHANNELS 3 Zrotation Yrotation Xrotation
				JOINT LeftForeArm
				{
					OFFSET 4.983000 -0.000000 -0.000000 
					CHANNELS 3 Zrotation Yrotation Xrotation
					JOINT LeftHand
					{
						OFFSET 3.483560 -0.000000 -0.000000 
						CHANNELS 3 Zrotation Yrotation Xrotation
						JOINT LeftHandIndex1
						{
							OFFSET 0.715260 -0.000000 -0.000000 
							CHANNELS 3 Zrotation Yrotation Xrotation
							End Site
							{
								OFFSET 0.000000 0.000000 0.000000 
							}
						}
					}
				}
			}
			JOINT RightArm
			{
				OFFSET -3.136600 1.374050 -0.404650 
				CHANNELS 3 Zrotation Yrotation Xrotation
				JOINT RightForeArm
				{
					OFFSET -5.241900 -0.000000 -0.000000 
					CHANNELS 3 Zrotation Yrotation Xrotation
					JOINT RightHand
					{
						OFFSET -3.444170 -0.000000 -0.000000 
						CHANNELS 3 Zrotation Yrotation Xrotation
						JOINT RightHandIndex1
						{
							OFFSET -0.622530 -0.000000 -0.000000 
							CHANNELS 3 Zrotation Yrotation Xrotation
							End Site
							{
								OFFSET 0.000000 0.000000 0.000000 
							}
						}
					}
				}
			}
		}
	}
}
MOTION
Frames: 10
Frame Time: 0.041667
10.121449 17.848268 49.021878 -177.344776 -15.703373 -178.145777 -16.483349 -27.789200 -2.187893 -2.009575 8.838897 25.066868 -2.932781 10.402460 -3.594819 4.310600 -12.562600 -37.752500 26.954420 19.046004 1.720173 2.530792 -7.614262 24.193301 7.112704 -27.052671 -23.226184 -0.303000 -3.539000 9.783000 2.647687 3.276266 0.905100 -5.216561 1.195824 -10.414866 3.900603 23.126857 4.323173 -1.831000 11.465400 2.632000 -88.864099 6.233899 29.340353 22.481505 -22.228495 -6.009309 1.627998 1.264727 16.250487 -7.125000 0.000000 0.000000 86.979471 -11.313118 49.917313 -20.466581 23.261883 -5.850007 1.313919 0.264259 17.149064 7.125000 0.000000 0.000000 
10.116847 17.845554 49.017276 -177.360484 -15.647315 -178.176748 -16.546339 -27.858025 -2.094539 -2.006091 8.842615 25.095023 -2.820669 10.149849 -3.710289 3.989700 -12.146600 -36.252700 26.959385 19.139008 1.819778 2.534616 -7.601707 24.168431 7.140089 -27.123164 -23.229846 -0.331600 -3.700700 10.236100 2.554008 3.329388 0.982938 -5.257130 1.220750 -10.372994 3.867782 23.093707 4.281970 -1.848200 11.445300 2.630200 -88.808197 6.144150 29.690653 23.124005 -22.923011 -6.192482 1.781593 1.014977 13.460981 -7.125000 0.000000 0.000000 87.066283 -11.305978 49.816833 -20.507309 23.317566 -5.883255 1.310011 0.273337 17.043389 7.125000 0.000000 0.000000 
10.097966 17.856292 49.034150 -177.298477 -14.919571 -177.881720 -16.493720 -27.862896 -2.342511 -2.016666 8.855407 25.075107 -3.124677 10.862186 -3.906134 4.024000 -12.192300 -36.415600 26.547833 18.932192 1.151102 2.506570 -7.636938 24.116779 7.158848 -26.707897 -22.053511 -0.277900 -3.390900 9.368900 2.385290 3.707258 0.672457 -5.563415 1.364336 -10.422305 3.957585 23.131932 4.050790 -1.851400 11.449700 2.495600 -88.767937 6.302746 30.184627 23.505952 -23.315106 -6.296998 1.780459 0.909458 12.493936 -7.125000 0.000000 0.000000 87.144082 -11.372914 49.837582 -20.681651 23.528987 -5.969909 1.296905 0.307261 16.385704 7.125000 0.000000 0.000000 
10.094898 17.856174 49.037808 -177.211772 -14.828993 -177.856089 -16.385773 -27.731958 -2.477901 -2.015085 8.862382 25.071402 -3.285886 11.229976 -3.814619 4.306700 -12.557800 -37.734900 26.559572 18.813435 1.023859 2.498907 -7.647818 24.125629 7.130996 -26.568500 -21.845940 -0.258400 -3.270800 9.033500 2.416543 3.737634 0.598693 -5.629226 1.370985 -10.458673 4.035580 23.205652 3.941276 -1.832000 11.479700 2.422200 -88.729335 6.445664 29.645530 22.915896 -22.709228 -6.135455 1.740045 1.094804 14.249278 -7.125000 0.000000 0.000000 87.117628 -11.431388 49.566976 -20.393372 23.133533 -5.775069 1.324564 0.229156 17.613056 7.125000 0.000000 0.000000 
10.094072 17.853460 49.035802 -177.185706 -14.891122 -177.854241 -16.338823 -27.626866 -2.554736 -2.020335 8.855670 25.039332 -3.354965 11.386088 -3.725108 4.468400 -12.758900 -38.472400 26.583290 18.689343 0.959265 2.487183 -7.667546 24.182328 7.120402 -26.544938 -21.840589 -0.238400 -3.142600 8.675900 2.449143 3.694753 0.620565 -5.623439 1.351075 -10.433066 4.020764 23.215039 4.042776 -1.827500 11.491800 2.477100 -88.667203 6.518172 28.092766 21.355650 -21.012353 -5.659165 1.568169 1.459315 19.970797 -7.125000 0.000000 0.000000 87.116355 -11.378652 49.472788 -20.444712 23.199735 -5.800195 1.320647 0.242997 17.354473 7.125000 0.000000 0.000000 
10.090178 17.853342 49.036746 -177.253854 -14.827954 -177.861594 -16.450786 -27.619473 -2.511372 -2.025119 8.855238 25.028938 -3.449628 11.608445 -3.738702 4.591300 -12.908300 -39.026100 26.456177 18.588537 0.877203 2.473678 -7.679933 24.214365 7.117022 -26.470011 -21.689459 -0.220200 -3.020800 8.336600 2.380392 3.719125 0.651054 -5.642122 1.362856 -10.471517 4.092646 23.209411 4.130799 -1.793800 11.496300 2.506900 -88.647803 6.498468 28.109838 21.306687 -20.940577 -5.628269 1.533147 1.484039 20.064246 -7.125000 0.000000 0.000000 87.137696 -11.290455 49.347509 -20.393452 23.133250 -5.762582 1.323360 0.244622 17.165681 7.125000 0.000000 0.000000 
10.085694 17.860541 49.039224 -177.336558 -14.617545 -177.727386 -16.514410 -27.634933 -2.556990 -2.033504 8.850452 25.003697 -3.467550 11.654889 -3.795673 4.489700 -12.785000 -38.569000 26.227859 18.520436 0.644396 2.461898 -7.696264 24.220913 7.087428 -26.260659 -21.378214 -0.213900 -2.977300 8.215600 2.280214 3.805768 0.567296 -5.675552 1.401286 -10.474117 4.049587 23.207522 4.088897 -1.823000 11.492800 2.495000 -88.619962 6.527040 28.218709 21.346617 -20.975585 -5.629426 1.534210 1.473930 19.751260 -7.125000 0.000000 0.000000 87.116397 -11.334534 49.577624 -20.437451 23.202520 -5.816626 1.317925 0.256700 17.114507 7.125000 0.000000 0.000000 
10.090060 17.859833 49.030728 -177.261720 -14.960960 -177.894887 -16.438621 -27.709524 -2.397030 -2.029086 8.833542 25.000635 -3.225001 11.085117 -3.710955 4.287000 -12.532800 -37.643700 26.504987 18.510233 0.928251 2.468987 -7.689613 24.272631 7.061056 -26.399353 -21.891335 -0.235300 -3.122000 8.618600 2.351113 3.638707 0.716291 -5.605441 1.327658 -10.446496 3.864446 23.179611 3.990146 -1.902300 11.470200 2.482500 -88.713112 6.595722 30.056775 23.135380 -22.922793 -6.203031 1.669564 1.111128 13.509880 -7.125000 0.000000 0.000000 87.110089 -11.383671 49.691667 -20.540546 23.340215 -5.882992 1.310533 0.267246 17.121582 7.125000 0.000000 0.000000 
10.089470 17.861957 49.028958 -177.179695 -14.865053 -177.850303 -16.333805 -27.695218 -2.451338 -2.040121 8.818177 24.945829 -3.311185 11.282394 -3.727141 4.402400 -12.677500 -38.172800 26.577801 18.612489 0.872197 2.463486 -7.711756 24.303102 7.088994 -26.471328 -21.853020 -0.208200 -2.938100 8.106400 2.373214 3.686660 0.682908 -5.644004 1.343849 -10.429602 3.792636 23.162637 3.960053 -1.926000 11.457300 2.485500 -88.686198 6.703334 29.828108 22.965640 -22.763865 -6.167936 1.701123 1.129146 14.138552 -7.125000 0.000000 0.000000 87.159100 -11.381103 49.665949 -20.586399 23.395173 -5.904675 1.308198 0.267694 17.223279 7.125000 0.000000 0.000000 
10.089116 17.854404 49.025182 -177.226104 -14.925827 -177.944854 -16.493783 -27.914727 -2.205878 -2.046752 8.811115 24.919526 -3.536827 11.805723 -3.793524 4.644000 -12.971300 -39.261200 26.599556 18.693970 1.016813 2.459814 -7.714687 24.337322 7.114269 -26.591629 -22.004248 -0.209100 -2.944400 8.124100 2.348078 3.639265 0.768277 -5.612438 1.326914 -10.467386 3.807893 23.181865 3.958050 -1.914000 11.466100 2.485300 -88.696935 6.764779 30.224104 23.379003 -23.175564 -6.277537 1.676726 1.053947 13.119534 -7.125000 0.000000 0.000000 87.201385 -11.330654 49.635751 -20.544967 23.346226 -5.883361 1.310466 0.264127 17.296300 7.125000 0.000000 0.000000 
